<mxfile host="app.diagrams.net" modified="2023-11-08T11:50:25.660Z" agent="Mozilla/5.0 (Windows NT 10.0; Win64; x64) AppleWebKit/537.36 (KHTML, like Gecko) Chrome/119.0.0.0 Safari/537.36 Edg/119.0.0.0" etag="vGo-xTLgrwtzfnYXFEfH" version="22.0.8" type="device">
  <diagram name="Pagina-1" id="8945g7XTG5tHfZd7_cs2">
    <mxGraphModel dx="1386" dy="785" grid="1" gridSize="10" guides="1" tooltips="1" connect="1" arrows="1" fold="1" page="1" pageScale="1" pageWidth="827" pageHeight="1169" math="0" shadow="0">
      <root>
        <mxCell id="0" />
        <mxCell id="1" parent="0" />
        <mxCell id="Wf5qzDtefmJui_8crJgm-1" value="Giocatori" style="swimlane;fontStyle=1;align=center;verticalAlign=top;childLayout=stackLayout;horizontal=1;startSize=26;horizontalStack=0;resizeParent=1;resizeParentMax=0;resizeLast=0;collapsible=1;marginBottom=0;whiteSpace=wrap;html=1;" vertex="1" parent="1">
          <mxGeometry x="40" y="320" width="240" height="290" as="geometry" />
        </mxCell>
        <mxCell id="Wf5qzDtefmJui_8crJgm-2" value="- nome: String&lt;br&gt;- cognome = String&lt;br&gt;- natoil: Date&lt;br&gt;- ruolo: String" style="text;strokeColor=none;fillColor=none;align=left;verticalAlign=top;spacingLeft=4;spacingRight=4;overflow=hidden;rotatable=0;points=[[0,0.5],[1,0.5]];portConstraint=eastwest;whiteSpace=wrap;html=1;" vertex="1" parent="Wf5qzDtefmJui_8crJgm-1">
          <mxGeometry y="26" width="240" height="64" as="geometry" />
        </mxCell>
        <mxCell id="Wf5qzDtefmJui_8crJgm-3" value="" style="line;strokeWidth=1;fillColor=none;align=left;verticalAlign=middle;spacingTop=-1;spacingLeft=3;spacingRight=3;rotatable=0;labelPosition=right;points=[];portConstraint=eastwest;strokeColor=inherit;" vertex="1" parent="Wf5qzDtefmJui_8crJgm-1">
          <mxGeometry y="90" width="240" height="10" as="geometry" />
        </mxCell>
        <mxCell id="Wf5qzDtefmJui_8crJgm-4" value="+ Giocatori(): void&lt;br&gt;+ Giocatori(String nome, String cognome, Date natoil, String ruolo): void&lt;br&gt;+ setNome(String nome): void&lt;br&gt;+ getNome(): String&lt;br&gt;+ setCognome(String cognome): void&lt;br&gt;+ getCognome(): String&lt;br&gt;+ setNascita(Date natoil): void&lt;br&gt;+ getNascita(): Date&lt;br&gt;+ setRuolo(String ruolo): void&lt;br&gt;+ getRuolo(): String&lt;br&gt;+ toString():String&amp;nbsp;" style="text;strokeColor=none;fillColor=none;align=left;verticalAlign=top;spacingLeft=4;spacingRight=4;overflow=hidden;rotatable=0;points=[[0,0.5],[1,0.5]];portConstraint=eastwest;whiteSpace=wrap;html=1;" vertex="1" parent="Wf5qzDtefmJui_8crJgm-1">
          <mxGeometry y="100" width="240" height="190" as="geometry" />
        </mxCell>
        <mxCell id="Wf5qzDtefmJui_8crJgm-5" value="Squadre" style="swimlane;fontStyle=1;align=center;verticalAlign=top;childLayout=stackLayout;horizontal=1;startSize=26;horizontalStack=0;resizeParent=1;resizeParentMax=0;resizeLast=0;collapsible=1;marginBottom=0;whiteSpace=wrap;html=1;" vertex="1" parent="1">
          <mxGeometry x="510" y="320" width="280" height="290" as="geometry" />
        </mxCell>
        <mxCell id="Wf5qzDtefmJui_8crJgm-6" value="- nomeSquadra: String&lt;br&gt;- numGiocatori = int&lt;br&gt;- vinte: int&lt;br&gt;- perse: int" style="text;strokeColor=none;fillColor=none;align=left;verticalAlign=top;spacingLeft=4;spacingRight=4;overflow=hidden;rotatable=0;points=[[0,0.5],[1,0.5]];portConstraint=eastwest;whiteSpace=wrap;html=1;" vertex="1" parent="Wf5qzDtefmJui_8crJgm-5">
          <mxGeometry y="26" width="280" height="64" as="geometry" />
        </mxCell>
        <mxCell id="Wf5qzDtefmJui_8crJgm-7" value="" style="line;strokeWidth=1;fillColor=none;align=left;verticalAlign=middle;spacingTop=-1;spacingLeft=3;spacingRight=3;rotatable=0;labelPosition=right;points=[];portConstraint=eastwest;strokeColor=inherit;" vertex="1" parent="Wf5qzDtefmJui_8crJgm-5">
          <mxGeometry y="90" width="280" height="10" as="geometry" />
        </mxCell>
        <mxCell id="Wf5qzDtefmJui_8crJgm-8" value="+ Squadre(): void&lt;br&gt;+ Squadre(String nomeSquadra, int numGiocatori, int vinte, int perse): void&lt;br&gt;+ setNomeSquadra(String nomeSquadra): void&lt;br&gt;+ getNomeSquadra(): String&lt;br&gt;+ setGiocatori(int numGiocatori): void&lt;br&gt;+ getGiocatori(): int&lt;br&gt;+ setPartiteVinte(int vinte): void&lt;br&gt;+ getPartiteVinte():int&lt;br&gt;+ set PartitePerse(int perse): void&lt;br&gt;+ getPartitePerse(): int&lt;br&gt;+ toString():String&amp;nbsp;" style="text;strokeColor=none;fillColor=none;align=left;verticalAlign=top;spacingLeft=4;spacingRight=4;overflow=hidden;rotatable=0;points=[[0,0.5],[1,0.5]];portConstraint=eastwest;whiteSpace=wrap;html=1;" vertex="1" parent="Wf5qzDtefmJui_8crJgm-5">
          <mxGeometry y="100" width="280" height="190" as="geometry" />
        </mxCell>
      </root>
    </mxGraphModel>
  </diagram>
</mxfile>
